<svg xmlns="http://www.w3.org/2000/svg" width="600" height="300" viewBox="0 0 120 60" overflow="hidden">
  <rect width="100%" height="100%" fill="#f8fafc"/>
  <rect x="0" y="0" width="120" height="60" fill="none" stroke="#334155" stroke-width="0.4"/>
  <g fill="#38bdf8" fill-opacity="0.55" stroke="none">
    <circle cx="2.5" cy="2.5" r="1.45"/>
    <circle cx="7.5" cy="2.5" r="1.45"/>
    <circle cx="12.5" cy="2.5" r="1.45"/>
    <circle cx="17.5" cy="2.5" r="1.45"/>
    <circle cx="22.5" cy="2.5" r="1.45"/>
    <circle cx="27.5" cy="2.5" r="1.45"/>
    <circle cx="32.5" cy="2.5" r="1.45"/>
    <circle cx="37.5" cy="2.5" r="1.45"/>
    <circle cx="42.5" cy="2.5" r="1.45"/>
    <circle cx="47.5" cy="2.5" r="1.45"/>
    <circle cx="52.5" cy="2.5" r="1.45"/>
    <circle cx="57.5" cy="2.5" r="1.45"/>
    <circle cx="2.5" cy="7.5" r="1.45"/>
    <circle cx="7.5" cy="7.5" r="1.45"/>
    <circle cx="12.5" cy="7.5" r="1.45"/>
    <circle cx="17.5" cy="7.5" r="1.45"/>
    <circle cx="22.5" cy="7.5" r="1.45"/>
    <circle cx="27.5" cy="7.5" r="1.45"/>
    <circle cx="32.5" cy="7.5" r="1.45"/>
    <circle cx="37.5" cy="7.5" r="1.45"/>
    <circle cx="42.5" cy="7.5" r="1.45"/>
    <circle cx="47.5" cy="7.5" r="1.45"/>
    <circle cx="52.5" cy="7.5" r="1.45"/>
    <circle cx="57.5" cy="7.5" r="1.45"/>
    <circle cx="2.5" cy="12.5" r="1.45"/>
    <circle cx="7.5" cy="12.5" r="1.45"/>
    <circle cx="12.5" cy="12.5" r="1.45"/>
    <circle cx="17.5" cy="12.5" r="1.45"/>
    <circle cx="22.5" cy="12.5" r="1.45"/>
    <circle cx="27.5" cy="12.5" r="1.45"/>
    <circle cx="32.5" cy="12.5" r="1.45"/>
    <circle cx="37.5" cy="12.5" r="1.45"/>
    <circle cx="42.5" cy="12.5" r="1.45"/>
    <circle cx="47.5" cy="12.5" r="1.45"/>
    <circle cx="52.5" cy="12.5" r="1.45"/>
    <circle cx="57.5" cy="12.5" r="1.45"/>
    <circle cx="2.5" cy="17.5" r="1.45"/>
    <circle cx="7.5" cy="17.5" r="1.45"/>
    <circle cx="12.5" cy="17.5" r="1.45"/>
    <circle cx="17.5" cy="17.5" r="1.45"/>
    <circle cx="22.5" cy="17.5" r="1.45"/>
    <circle cx="27.5" cy="17.5" r="1.45"/>
    <circle cx="32.5" cy="17.5" r="1.45"/>
    <circle cx="37.5" cy="17.5" r="1.45"/>
    <circle cx="42.5" cy="17.5" r="1.45"/>
    <circle cx="47.5" cy="17.5" r="1.45"/>
    <circle cx="52.5" cy="17.5" r="1.45"/>
    <circle cx="57.5" cy="17.5" r="1.45"/>
    <circle cx="2.5" cy="22.5" r="1.45"/>
    <circle cx="7.5" cy="22.5" r="1.45"/>
    <circle cx="12.5" cy="22.5" r="1.45"/>
    <circle cx="17.5" cy="22.5" r="1.45"/>
    <circle cx="22.5" cy="22.5" r="1.45"/>
    <circle cx="27.5" cy="22.5" r="1.45"/>
    <circle cx="32.5" cy="22.5" r="1.45"/>
    <circle cx="37.5" cy="22.5" r="1.45"/>
    <circle cx="42.5" cy="22.5" r="1.45"/>
    <circle cx="47.5" cy="22.5" r="1.45"/>
    <circle cx="52.5" cy="22.5" r="1.45"/>
    <circle cx="57.5" cy="22.5" r="1.45"/>
    <circle cx="2.5" cy="27.5" r="1.45"/>
    <circle cx="7.5" cy="27.5" r="1.45"/>
    <circle cx="12.5" cy="27.5" r="1.45"/>
    <circle cx="17.5" cy="27.5" r="1.45"/>
    <circle cx="22.5" cy="27.5" r="1.45"/>
    <circle cx="27.5" cy="27.5" r="1.45"/>
    <circle cx="32.5" cy="27.5" r="1.45"/>
    <circle cx="37.5" cy="27.5" r="1.45"/>
    <circle cx="42.5" cy="27.5" r="1.45"/>
    <circle cx="47.5" cy="27.5" r="1.45"/>
    <circle cx="52.5" cy="27.5" r="1.45"/>
    <circle cx="57.5" cy="27.5" r="1.45"/>
    <circle cx="2.5" cy="32.5" r="1.45"/>
    <circle cx="7.5" cy="32.5" r="1.45"/>
    <circle cx="12.5" cy="32.5" r="1.45"/>
    <circle cx="17.5" cy="32.5" r="1.45"/>
    <circle cx="22.5" cy="32.5" r="1.45"/>
    <circle cx="27.5" cy="32.5" r="1.45"/>
    <circle cx="32.5" cy="32.5" r="1.45"/>
    <circle cx="37.5" cy="32.5" r="1.45"/>
    <circle cx="42.5" cy="32.5" r="1.45"/>
    <circle cx="47.5" cy="32.5" r="1.45"/>
    <circle cx="52.5" cy="32.5" r="1.45"/>
    <circle cx="57.5" cy="32.5" r="1.45"/>
    <circle cx="2.5" cy="37.5" r="1.45"/>
    <circle cx="7.5" cy="37.5" r="1.45"/>
    <circle cx="12.5" cy="37.5" r="1.45"/>
    <circle cx="17.5" cy="37.5" r="1.45"/>
    <circle cx="22.5" cy="37.5" r="1.45"/>
    <circle cx="27.5" cy="37.5" r="1.45"/>
    <circle cx="32.5" cy="37.5" r="1.45"/>
    <circle cx="37.5" cy="37.5" r="1.45"/>
    <circle cx="42.5" cy="37.5" r="1.45"/>
    <circle cx="47.5" cy="37.5" r="1.45"/>
    <circle cx="52.5" cy="37.5" r="1.45"/>
    <circle cx="57.5" cy="37.5" r="1.45"/>
    <circle cx="2.5" cy="42.5" r="1.45"/>
    <circle cx="7.5" cy="42.5" r="1.45"/>
    <circle cx="12.5" cy="42.5" r="1.45"/>
    <circle cx="17.5" cy="42.5" r="1.45"/>
    <circle cx="22.5" cy="42.5" r="1.45"/>
    <circle cx="27.5" cy="42.5" r="1.45"/>
    <circle cx="32.5" cy="42.5" r="1.45"/>
    <circle cx="37.5" cy="42.5" r="1.45"/>
    <circle cx="42.5" cy="42.5" r="1.45"/>
    <circle cx="47.5" cy="42.5" r="1.45"/>
    <circle cx="52.5" cy="42.5" r="1.45"/>
    <circle cx="57.5" cy="42.5" r="1.45"/>
    <circle cx="2.5" cy="47.5" r="1.45"/>
    <circle cx="7.5" cy="47.5" r="1.45"/>
    <circle cx="12.5" cy="47.5" r="1.45"/>
    <circle cx="17.5" cy="47.5" r="1.45"/>
    <circle cx="22.5" cy="47.5" r="1.45"/>
    <circle cx="27.5" cy="47.5" r="1.45"/>
    <circle cx="32.5" cy="47.5" r="1.45"/>
    <circle cx="37.5" cy="47.5" r="1.45"/>
    <circle cx="42.5" cy="47.5" r="1.45"/>
    <circle cx="47.5" cy="47.5" r="1.45"/>
    <circle cx="52.5" cy="47.5" r="1.45"/>
    <circle cx="57.5" cy="47.5" r="1.45"/>
    <circle cx="2.5" cy="52.5" r="1.45"/>
    <circle cx="7.5" cy="52.5" r="1.45"/>
    <circle cx="12.5" cy="52.5" r="1.45"/>
    <circle cx="17.5" cy="52.5" r="1.45"/>
    <circle cx="22.5" cy="52.5" r="1.45"/>
    <circle cx="27.5" cy="52.5" r="1.45"/>
    <circle cx="32.5" cy="52.5" r="1.45"/>
    <circle cx="37.5" cy="52.5" r="1.45"/>
    <circle cx="42.5" cy="52.5" r="1.45"/>
    <circle cx="47.5" cy="52.5" r="1.45"/>
    <circle cx="52.5" cy="52.5" r="1.45"/>
    <circle cx="57.5" cy="52.5" r="1.45"/>
    <circle cx="2.5" cy="57.5" r="1.45"/>
    <circle cx="7.5" cy="57.5" r="1.45"/>
    <circle cx="12.5" cy="57.5" r="1.45"/>
    <circle cx="17.5" cy="57.5" r="1.45"/>
    <circle cx="22.5" cy="57.5" r="1.45"/>
    <circle cx="27.5" cy="57.5" r="1.45"/>
    <circle cx="32.5" cy="57.5" r="1.45"/>
    <circle cx="37.5" cy="57.5" r="1.45"/>
    <circle cx="42.5" cy="57.5" r="1.45"/>
    <circle cx="47.5" cy="57.5" r="1.45"/>
    <circle cx="52.5" cy="57.5" r="1.45"/>
    <circle cx="57.5" cy="57.5" r="1.45"/>
  </g>
  <g fill="#fb7185" fill-opacity="0.55" stroke="none">
    <circle cx="62.5" cy="2.5" r="1.45"/>
    <circle cx="67.5" cy="2.5" r="1.45"/>
    <circle cx="72.5" cy="2.5" r="1.45"/>
    <circle cx="77.5" cy="2.5" r="1.45"/>
    <circle cx="82.5" cy="2.5" r="1.45"/>
    <circle cx="87.5" cy="2.5" r="1.45"/>
    <circle cx="92.5" cy="2.5" r="1.45"/>
    <circle cx="97.5" cy="2.5" r="1.45"/>
    <circle cx="102.5" cy="2.5" r="1.45"/>
    <circle cx="107.5" cy="2.5" r="1.45"/>
    <circle cx="112.5" cy="2.5" r="1.45"/>
    <circle cx="117.5" cy="2.5" r="1.45"/>
    <circle cx="62.5" cy="7.5" r="1.45"/>
    <circle cx="67.5" cy="7.5" r="1.45"/>
    <circle cx="72.5" cy="7.5" r="1.45"/>
    <circle cx="77.5" cy="7.5" r="1.45"/>
    <circle cx="82.5" cy="7.5" r="1.45"/>
    <circle cx="87.5" cy="7.5" r="1.45"/>
    <circle cx="92.5" cy="7.5" r="1.45"/>
    <circle cx="97.5" cy="7.5" r="1.45"/>
    <circle cx="102.5" cy="7.5" r="1.45"/>
    <circle cx="107.5" cy="7.5" r="1.45"/>
    <circle cx="112.5" cy="7.5" r="1.45"/>
    <circle cx="117.5" cy="7.5" r="1.45"/>
    <circle cx="62.5" cy="12.5" r="1.45"/>
    <circle cx="67.5" cy="12.5" r="1.45"/>
    <circle cx="72.5" cy="12.5" r="1.45"/>
    <circle cx="77.5" cy="12.5" r="1.45"/>
    <circle cx="82.5" cy="12.5" r="1.45"/>
    <circle cx="87.5" cy="12.5" r="1.45"/>
    <circle cx="92.5" cy="12.5" r="1.45"/>
    <circle cx="97.5" cy="12.5" r="1.45"/>
    <circle cx="102.5" cy="12.5" r="1.45"/>
    <circle cx="107.5" cy="12.5" r="1.45"/>
    <circle cx="112.5" cy="12.5" r="1.45"/>
    <circle cx="117.5" cy="12.5" r="1.45"/>
    <circle cx="62.5" cy="17.5" r="1.45"/>
    <circle cx="67.5" cy="17.5" r="1.45"/>
    <circle cx="72.5" cy="17.5" r="1.45"/>
    <circle cx="77.5" cy="17.5" r="1.45"/>
    <circle cx="82.5" cy="17.5" r="1.45"/>
    <circle cx="87.5" cy="17.5" r="1.45"/>
    <circle cx="92.5" cy="17.5" r="1.45"/>
    <circle cx="97.5" cy="17.5" r="1.45"/>
    <circle cx="102.5" cy="17.5" r="1.45"/>
    <circle cx="107.5" cy="17.5" r="1.45"/>
    <circle cx="112.5" cy="17.5" r="1.45"/>
    <circle cx="117.5" cy="17.5" r="1.45"/>
    <circle cx="62.5" cy="22.5" r="1.45"/>
    <circle cx="67.5" cy="22.5" r="1.45"/>
    <circle cx="72.5" cy="22.5" r="1.45"/>
    <circle cx="77.5" cy="22.5" r="1.45"/>
    <circle cx="82.5" cy="22.5" r="1.45"/>
    <circle cx="87.5" cy="22.5" r="1.45"/>
    <circle cx="92.5" cy="22.5" r="1.45"/>
    <circle cx="97.5" cy="22.5" r="1.45"/>
    <circle cx="102.5" cy="22.5" r="1.45"/>
    <circle cx="107.5" cy="22.5" r="1.45"/>
    <circle cx="112.5" cy="22.5" r="1.45"/>
    <circle cx="117.5" cy="22.5" r="1.45"/>
    <circle cx="62.5" cy="27.5" r="1.45"/>
    <circle cx="67.5" cy="27.5" r="1.45"/>
    <circle cx="72.5" cy="27.5" r="1.45"/>
    <circle cx="77.5" cy="27.5" r="1.45"/>
    <circle cx="82.5" cy="27.5" r="1.45"/>
    <circle cx="87.5" cy="27.5" r="1.45"/>
    <circle cx="92.5" cy="27.5" r="1.45"/>
    <circle cx="97.5" cy="27.5" r="1.45"/>
    <circle cx="102.5" cy="27.5" r="1.45"/>
    <circle cx="107.5" cy="27.5" r="1.45"/>
    <circle cx="112.5" cy="27.5" r="1.45"/>
    <circle cx="117.5" cy="27.5" r="1.45"/>
    <circle cx="62.5" cy="32.5" r="1.45"/>
    <circle cx="67.5" cy="32.5" r="1.45"/>
    <circle cx="72.5" cy="32.5" r="1.45"/>
    <circle cx="77.5" cy="32.5" r="1.45"/>
    <circle cx="82.5" cy="32.5" r="1.45"/>
    <circle cx="87.5" cy="32.5" r="1.45"/>
    <circle cx="92.5" cy="32.5" r="1.45"/>
    <circle cx="97.5" cy="32.5" r="1.45"/>
    <circle cx="102.5" cy="32.5" r="1.45"/>
    <circle cx="107.5" cy="32.5" r="1.45"/>
    <circle cx="112.5" cy="32.5" r="1.45"/>
    <circle cx="117.5" cy="32.5" r="1.45"/>
    <circle cx="62.5" cy="37.5" r="1.45"/>
    <circle cx="67.5" cy="37.5" r="1.45"/>
    <circle cx="72.5" cy="37.5" r="1.45"/>
    <circle cx="77.5" cy="37.5" r="1.45"/>
    <circle cx="82.5" cy="37.5" r="1.45"/>
    <circle cx="87.5" cy="37.5" r="1.45"/>
    <circle cx="92.5" cy="37.5" r="1.45"/>
    <circle cx="97.5" cy="37.5" r="1.45"/>
    <circle cx="102.5" cy="37.5" r="1.45"/>
    <circle cx="107.5" cy="37.5" r="1.45"/>
    <circle cx="112.5" cy="37.5" r="1.45"/>
    <circle cx="117.5" cy="37.5" r="1.45"/>
    <circle cx="62.5" cy="42.5" r="1.45"/>
    <circle cx="67.5" cy="42.5" r="1.45"/>
    <circle cx="72.5" cy="42.5" r="1.45"/>
    <circle cx="77.5" cy="42.5" r="1.45"/>
    <circle cx="82.5" cy="42.5" r="1.45"/>
    <circle cx="87.5" cy="42.5" r="1.45"/>
    <circle cx="92.5" cy="42.5" r="1.45"/>
    <circle cx="97.5" cy="42.5" r="1.45"/>
    <circle cx="102.5" cy="42.5" r="1.45"/>
    <circle cx="107.5" cy="42.5" r="1.45"/>
    <circle cx="112.5" cy="42.5" r="1.45"/>
    <circle cx="117.5" cy="42.5" r="1.45"/>
    <circle cx="62.5" cy="47.5" r="1.45"/>
    <circle cx="67.5" cy="47.5" r="1.45"/>
    <circle cx="72.5" cy="47.5" r="1.45"/>
    <circle cx="77.5" cy="47.5" r="1.45"/>
    <circle cx="82.5" cy="47.5" r="1.45"/>
    <circle cx="87.5" cy="47.5" r="1.45"/>
    <circle cx="92.5" cy="47.5" r="1.45"/>
    <circle cx="97.5" cy="47.5" r="1.45"/>
    <circle cx="102.5" cy="47.5" r="1.45"/>
    <circle cx="107.5" cy="47.5" r="1.45"/>
    <circle cx="112.5" cy="47.5" r="1.45"/>
    <circle cx="117.5" cy="47.5" r="1.45"/>
    <circle cx="62.5" cy="52.5" r="1.45"/>
    <circle cx="67.5" cy="52.5" r="1.45"/>
    <circle cx="72.5" cy="52.5" r="1.45"/>
    <circle cx="77.5" cy="52.5" r="1.45"/>
    <circle cx="82.5" cy="52.5" r="1.45"/>
    <circle cx="87.5" cy="52.5" r="1.45"/>
    <circle cx="92.5" cy="52.5" r="1.45"/>
    <circle cx="97.5" cy="52.5" r="1.45"/>
    <circle cx="102.5" cy="52.5" r="1.45"/>
    <circle cx="107.5" cy="52.5" r="1.45"/>
    <circle cx="112.5" cy="52.5" r="1.45"/>
    <circle cx="117.5" cy="52.5" r="1.45"/>
    <circle cx="62.5" cy="57.5" r="1.45"/>
    <circle cx="67.5" cy="57.5" r="1.45"/>
    <circle cx="72.5" cy="57.5" r="1.45"/>
    <circle cx="77.5" cy="57.5" r="1.45"/>
    <circle cx="82.5" cy="57.5" r="1.45"/>
    <circle cx="87.5" cy="57.5" r="1.45"/>
    <circle cx="92.5" cy="57.5" r="1.45"/>
    <circle cx="97.5" cy="57.5" r="1.45"/>
    <circle cx="102.5" cy="57.5" r="1.45"/>
    <circle cx="107.5" cy="57.5" r="1.45"/>
    <circle cx="112.5" cy="57.5" r="1.45"/>
    <circle cx="117.5" cy="57.5" r="1.45"/>
  </g>
  <g fill="none" stroke="#0f172a" stroke-width="0.35" stroke-dasharray="1.2 1.2">
    <circle cx="25" cy="30" r="2"/>
    <circle cx="95" cy="30" r="2"/>
  </g>
  <g fill="#0f172a" stroke="#f8fafc" stroke-width="0.5">
    <circle cx="25" cy="30" r="2.4"/>
    <circle cx="95" cy="30" r="2.4"/>
  </g>
</svg>
