<svg xmlns="http://www.w3.org/2000/svg" width="600" height="400" viewBox="0 0 120 80" overflow="hidden">
  <rect width="100%" height="100%" fill="#f8fafc"/>
  <rect x="0" y="0" width="120" height="80" fill="none" stroke="#334155" stroke-width="0.4"/>
  <g fill="none" stroke="#cbd5e1" stroke-width="0.35">
    <circle cx="8.01" cy="5.613" r="9"/>
    <circle cx="16.296" cy="19.819" r="9"/>
    <circle cx="4.962" cy="19.391" r="9"/>
    <circle cx="23.945" cy="5.871" r="9"/>
    <circle cx="13.94" cy="31.003" r="9"/>
    <circle cx="31.452" cy="20.759" r="9"/>
    <circle cx="45.5" cy="27.076" r="9"/>
    <circle cx="54.268" cy="33.02" r="9"/>
    <circle cx="35.95" cy="7.003" r="9"/>
    <circle cx="60.533" cy="26.314" r="9"/>
    <circle cx="43.816" cy="45.018" r="9"/>
    <circle cx="44.651" cy="11.249" r="9"/>
    <circle cx="51.075" cy="58.508" r="9"/>
    <circle cx="34.683" cy="50.185" r="9"/>
    <circle cx="67.581" cy="33.384" r="9"/>
    <circle cx="63.514" cy="42.363" r="9"/>
    <circle cx="25.591" cy="47.621" r="9"/>
    <circle cx="36.887" cy="34.668" r="9"/>
    <circle cx="3.471" cy="28.777" r="9"/>
    <circle cx="4.36" cy="44.08" r="9"/>
    <circle cx="22.751" cy="35.829" r="9"/>
    <circle cx="58.436" cy="15.668" r="9"/>
    <circle cx="49.127" cy="1.754" r="9"/>
    <circle cx="62.336" cy="60.861" r="9"/>
    <circle cx="15.726" cy="43.931" r="9"/>
    <circle cx="18.938" cy="64.057" r="9"/>
    <circle cx="68.131" cy="9.825" r="9"/>
    <circle cx="44.235" cy="65.771" r="9"/>
    <circle cx="54.818" cy="47.495" r="9"/>
    <circle cx="78.038" cy="65.773" r="9"/>
    <circle cx="58.147" cy="0.213" r="9"/>
    <circle cx="72.773" cy="1.366" r="9"/>
    <circle cx="73.585" cy="22.447" r="9"/>
    <circle cx="78.911" cy="35.724" r="9"/>
    <circle cx="67.131" cy="68.831" r="9"/>
    <circle cx="52.106" cy="71.952" r="9"/>
    <circle cx="77.072" cy="46.761" r="9"/>
    <circle cx="66.449" cy="79.645" r="9"/>
    <circle cx="83.029" cy="73.418" r="9"/>
    <circle cx="33.185" cy="62.646" r="9"/>
    <circle cx="39.483" cy="78.743" r="9"/>
    <circle cx="68.464" cy="54.216" r="9"/>
    <circle cx="10.166" cy="66.79" r="9"/>
    <circle cx="94.731" cy="62.565" r="9"/>
    <circle cx="79.521" cy="8.867" r="9"/>
    <circle cx="100.148" cy="74.405" r="9"/>
    <circle cx="12.632" cy="78.793" r="9"/>
    <circle cx="82.928" cy="56.558" r="9"/>
    <circle cx="84.462" cy="28.53" r="9"/>
    <circle cx="4.215" cy="55.235" r="9"/>
    <circle cx="92.012" cy="50.893" r="9"/>
    <circle cx="31.264" cy="73.324" r="9"/>
    <circle cx="16.605" cy="55.042" r="9"/>
    <circle cx="2.956" cy="75.034" r="9"/>
    <circle cx="101.906" cy="44.622" r="9"/>
    <circle cx="88.069" cy="39.15" r="9"/>
    <circle cx="23.133" cy="26.305" r="9"/>
    <circle cx="111.704" cy="72.151" r="9"/>
    <circle cx="100.455" cy="34.917" r="9"/>
    <circle cx="98.509" cy="25.257" r="9"/>
    <circle cx="84.277" cy="0.978" r="9"/>
    <circle cx="108.704" cy="53.146" r="9"/>
    <circle cx="81.404" cy="17.716" r="9"/>
    <circle cx="109.55" cy="32.243" r="9"/>
    <circle cx="112.703" cy="22.456" r="9"/>
    <circle cx="90.968" cy="15.333" r="9"/>
    <circle cx="20.906" cy="74.079" r="9"/>
    <circle cx="119.935" cy="58.959" r="9"/>
    <circle cx="92.686" cy="79.862" r="9"/>
    <circle cx="104.418" cy="63.264" r="9"/>
    <circle cx="117.758" cy="46.825" r="9"/>
    <circle cx="103.714" cy="9.632" r="9"/>
    <circle cx="119.518" cy="79.775" r="9"/>
    <circle cx="94.768" cy="5.787" r="9"/>
    <circle cx="115.832" cy="10.679" r="9"/>
    <circle cx="118.2" cy="37.59" r="9"/>
    <circle cx="109.707" cy="2.301" r="9"/>
  </g>
  <g fill="#0f766e" stroke="#0f172a" stroke-width="0.35">
    <circle cx="8.01" cy="5.613" r="1.35"/>
    <circle cx="16.296" cy="19.819" r="1.35"/>
    <circle cx="4.962" cy="19.391" r="1.35"/>
    <circle cx="23.945" cy="5.871" r="1.35"/>
    <circle cx="13.94" cy="31.003" r="1.35"/>
    <circle cx="31.452" cy="20.759" r="1.35"/>
    <circle cx="45.5" cy="27.076" r="1.35"/>
    <circle cx="54.268" cy="33.02" r="1.35"/>
    <circle cx="35.95" cy="7.003" r="1.35"/>
    <circle cx="60.533" cy="26.314" r="1.35"/>
    <circle cx="43.816" cy="45.018" r="1.35"/>
    <circle cx="44.651" cy="11.249" r="1.35"/>
    <circle cx="51.075" cy="58.508" r="1.35"/>
    <circle cx="34.683" cy="50.185" r="1.35"/>
    <circle cx="67.581" cy="33.384" r="1.35"/>
    <circle cx="63.514" cy="42.363" r="1.35"/>
    <circle cx="25.591" cy="47.621" r="1.35"/>
    <circle cx="36.887" cy="34.668" r="1.35"/>
    <circle cx="3.471" cy="28.777" r="1.35"/>
    <circle cx="4.36" cy="44.08" r="1.35"/>
    <circle cx="22.751" cy="35.829" r="1.35"/>
    <circle cx="58.436" cy="15.668" r="1.35"/>
    <circle cx="49.127" cy="1.754" r="1.35"/>
    <circle cx="62.336" cy="60.861" r="1.35"/>
    <circle cx="15.726" cy="43.931" r="1.35"/>
    <circle cx="18.938" cy="64.057" r="1.35"/>
    <circle cx="68.131" cy="9.825" r="1.35"/>
    <circle cx="44.235" cy="65.771" r="1.35"/>
    <circle cx="54.818" cy="47.495" r="1.35"/>
    <circle cx="78.038" cy="65.773" r="1.35"/>
    <circle cx="58.147" cy="0.213" r="1.35"/>
    <circle cx="72.773" cy="1.366" r="1.35"/>
    <circle cx="73.585" cy="22.447" r="1.35"/>
    <circle cx="78.911" cy="35.724" r="1.35"/>
    <circle cx="67.131" cy="68.831" r="1.35"/>
    <circle cx="52.106" cy="71.952" r="1.35"/>
    <circle cx="77.072" cy="46.761" r="1.35"/>
    <circle cx="66.449" cy="79.645" r="1.35"/>
    <circle cx="83.029" cy="73.418" r="1.35"/>
    <circle cx="33.185" cy="62.646" r="1.35"/>
    <circle cx="39.483" cy="78.743" r="1.35"/>
    <circle cx="68.464" cy="54.216" r="1.35"/>
    <circle cx="10.166" cy="66.79" r="1.35"/>
    <circle cx="94.731" cy="62.565" r="1.35"/>
    <circle cx="79.521" cy="8.867" r="1.35"/>
    <circle cx="100.148" cy="74.405" r="1.35"/>
    <circle cx="12.632" cy="78.793" r="1.35"/>
    <circle cx="82.928" cy="56.558" r="1.35"/>
    <circle cx="84.462" cy="28.53" r="1.35"/>
    <circle cx="4.215" cy="55.235" r="1.35"/>
    <circle cx="92.012" cy="50.893" r="1.35"/>
    <circle cx="31.264" cy="73.324" r="1.35"/>
    <circle cx="16.605" cy="55.042" r="1.35"/>
    <circle cx="2.956" cy="75.034" r="1.35"/>
    <circle cx="101.906" cy="44.622" r="1.35"/>
    <circle cx="88.069" cy="39.15" r="1.35"/>
    <circle cx="23.133" cy="26.305" r="1.35"/>
    <circle cx="111.704" cy="72.151" r="1.35"/>
    <circle cx="100.455" cy="34.917" r="1.35"/>
    <circle cx="98.509" cy="25.257" r="1.35"/>
    <circle cx="84.277" cy="0.978" r="1.35"/>
    <circle cx="108.704" cy="53.146" r="1.35"/>
    <circle cx="81.404" cy="17.716" r="1.35"/>
    <circle cx="109.55" cy="32.243" r="1.35"/>
    <circle cx="112.703" cy="22.456" r="1.35"/>
    <circle cx="90.968" cy="15.333" r="1.35"/>
    <circle cx="20.906" cy="74.079" r="1.35"/>
    <circle cx="119.935" cy="58.959" r="1.35"/>
    <circle cx="92.686" cy="79.862" r="1.35"/>
    <circle cx="104.418" cy="63.264" r="1.35"/>
    <circle cx="117.758" cy="46.825" r="1.35"/>
    <circle cx="103.714" cy="9.632" r="1.35"/>
    <circle cx="119.518" cy="79.775" r="1.35"/>
    <circle cx="94.768" cy="5.787" r="1.35"/>
    <circle cx="115.832" cy="10.679" r="1.35"/>
    <circle cx="118.2" cy="37.59" r="1.35"/>
    <circle cx="109.707" cy="2.301" r="1.35"/>
  </g>
</svg>
